{"title":"Filthy Things 7 DVDRip","uid":10838328,"size":733431368,"categoryP":"porn","categoryS":"movie_clips","magnet":"?xt=urn:btih:8d7538720614bcc58c995644085d1b2b25bbdf19&amp;dn=Filthy+Things+7+DVDRip&amp;tr=udp%3A%2F%2Ftracker.openbittorrent.com%3A80&amp;tr=udp%3A%2F%2Fopen.demonii.com%3A1337&amp;tr=udp%3A%2F%2Ftracker.coppersurfer.tk%3A6969&amp;tr=udp%3A%2F%2Fexodus.desync.com%3A6969","seeders":1,"leechers":1,"uploader":"ThousandPeers","files":-1,"time":1408719522,"description":"Format                                   : AVI\nFormat/Info                              : Audio Video Interleave\nFile size                                : 699 MiB\nDuration                                 : 1h 49mn\nOverall bit rate mode                    : Variable\nOverall bit rate                         : 893 Kbps\nWriting application                      : VirtualDubMod 1.5.10.1 (build 2439/release)\nWriting library                          : VirtualDubMod build 2439/release\n\nVideo\nID                                       : 0\nFormat                                   : MPEG-4 Visual\nFormat profile                           : Advanced Simple@L5\nFormat settings, BVOP                    : 2\nFormat settings, QPel                    : No\nFormat settings, GMC                     : No warppoints\nFormat settings, Matrix                  : Default (H.263)\nMuxing mode                              : Packed bitstream\nCodec ID                                 : XVID\nCodec ID/Hint                            : XviD\nDuration                                 : 1h 49mn\nBit rate                                 : 771 Kbps\nWidth                                    : 512 pixels\nHeight                                   : 288 pixels\nDisplay aspect ratio                     : 16:9\nFrame rate                               : 29.970 fps\nColor space                              : YUV\nChroma subsampling                       : 4:2:0\nBit depth                                : 8 bits\nScan type                                : Progressive\nCompression mode                         : Lossy\nBits/(Pixel*Frame)                       : 0.174\nStream size                              : 603 MiB (86%)\nWriting library                          : XviD 1.0.3 (UTC 2004-12-20)\n\nAudio\nID                                       : 1\nFormat                                   : MPEG Audio\nFormat version                           : Version 1\nFormat profile                           : Layer 3\nMode                                     : Joint stereo\nMode extension                           : MS Stereo\nCodec ID                                 : 55\nCodec ID/Hint                            : MP3\nDuration                                 : 1h 49mn\nBit rate mode                            : Variable\nBit rate                                 : 108 Kbps\nNominal bit rate                         : 128 Kbps\nChannel(s)                               : 2 channels\nSampling rate                            : 48.0 KHz\nCompression mode                         : Lossy\nStream size                              : 84.5 MiB (12%)","torrent":{"xt":"urn:btih:8d7538720614bcc58c995644085d1b2b25bbdf19","amp;dn":"Filthy+Things+7+DVDRip","amp;tr":["udp%3A%2F%2Ftracker.openbittorrent.com%3A80","udp%3A%2F%2Fopen.demonii.com%3A1337","udp%3A%2F%2Ftracker.coppersurfer.tk%3A6969","udp%3A%2F%2Fexodus.desync.com%3A6969"],"infoHash":"8d7538720614bcc58c995644085d1b2b25bbdf19","infoHashBuffer":{"type":"Buffer","data":[141,117,56,114,6,20,188,197,140,153,86,68,8,93,27,43,37,187,223,25]},"announce":[],"urlList":[]}}